<?xml version="1.0" encoding="UTF-8" standalone="no"?>
<svg
   id="Capa_2"
   viewBox="0 0 620.72474 138.96174"
   version="1.1"
   sodipodi:docname="ai4eosc.svg"
   width="620.72473"
   height="138.96173"
   inkscape:version="1.2.2 (b0a8486541, 2022-12-01)"
   xmlns:inkscape="http://www.inkscape.org/namespaces/inkscape"
   xmlns:sodipodi="http://sodipodi.sourceforge.net/DTD/sodipodi-0.dtd"
   xmlns="http://www.w3.org/2000/svg"
   xmlns:svg="http://www.w3.org/2000/svg">
  <defs
     id="defs104" />
  <sodipodi:namedview
     id="namedview102"
     pagecolor="#ffffff"
     bordercolor="#666666"
     borderopacity="1.0"
     inkscape:showpageshadow="2"
     inkscape:pageopacity="0.0"
     inkscape:pagecheckerboard="0"
     inkscape:deskcolor="#d1d1d1"
     showgrid="false"
     inkscape:zoom="1.7550708"
     inkscape:cx="178.34039"
     inkscape:cy="64.384869"
     inkscape:window-width="2556"
     inkscape:window-height="1397"
     inkscape:window-x="2560"
     inkscape:window-y="20"
     inkscape:window-maximized="1"
     inkscape:current-layer="Capa_2" />
  <g
     id="Capa_1-2"
     transform="translate(-62.758583,-67.856255)">
    <g
       id="g98">
      <rect
         width="742.98999"
         height="264.82999"
         style="fill:none"
         id="rect70"
         x="0"
         y="0" />
      <g
         id="g80">
        <path
           d="m 477.46,137.82 c 0.98,-0.85 1.47,-1.93 1.47,-3.23 -0.08,-4.64 -0.94,-8.79 -2.56,-12.45 -1.62,-3.66 -3.78,-6.83 -6.46,-9.52 -2.69,-2.68 -5.78,-4.72 -9.28,-6.1 -3.5,-1.38 -7.12,-2.07 -10.86,-2.07 -5.04,0 -9.82,1.32 -14.34,3.97 -4.52,2.64 -8.18,6.47 -10.98,11.47 -2.81,5 -4.21,11.04 -4.21,18.13 0,6.34 1.34,11.94 4.03,16.78 2.69,4.84 6.47,8.64 11.35,11.41 4.88,2.77 10.62,4.15 17.21,4.15 4.39,0 8.52,-0.94 12.39,-2.81 3.86,-1.87 6.98,-4.07 9.34,-6.59 1.3,-1.14 1.95,-2.4 1.95,-3.78 0,-1.14 -0.41,-2.12 -1.22,-2.93 -0.82,-0.81 -1.79,-1.22 -2.93,-1.22 -1.06,0 -2.12,0.37 -3.17,1.1 -1.06,1.14 -2.34,2.26 -3.85,3.36 -1.51,1.1 -3.32,2.01 -5.43,2.75 -2.11,0.73 -4.59,1.1 -7.44,1.1 -4.56,0 -8.55,-1.04 -11.96,-3.11 -3.42,-2.07 -6.08,-4.9 -8,-8.48 -1.66,-3.11 -2.59,-6.65 -2.82,-10.62 h 44.37 c 1.3,0 2.44,-0.43 3.42,-1.28 m -41.43,-18.73 c 1.91,-1.87 4.07,-3.25 6.47,-4.15 2.4,-0.89 4.82,-1.34 7.26,-1.34 3.01,0 5.88,0.65 8.61,1.95 2.73,1.3 5.04,3.16 6.95,5.56 1.91,2.4 2.99,5.27 3.23,8.6 v 0.98 h -38.34 c 0.29,-1.53 0.67,-2.97 1.17,-4.27 1.18,-3.01 2.73,-5.45 4.64,-7.32"
           style="fill:#040305"
           id="path72" />
        <path
           d="m 553.49,137.39 c 0,6.34 -1.4,12.01 -4.21,16.96 -2.81,4.97 -6.59,8.87 -11.35,11.72 -4.76,2.85 -10.11,4.27 -16.05,4.27 -5.94,0 -11.31,-1.42 -16.11,-4.27 -4.8,-2.85 -8.6,-6.75 -11.41,-11.72 -2.81,-4.96 -4.21,-10.62 -4.21,-16.96 0,-6.34 1.4,-12 4.21,-16.96 2.81,-4.96 6.61,-8.87 11.41,-11.72 4.8,-2.85 10.17,-4.27 16.11,-4.27 5.94,0 11.29,1.42 16.05,4.27 4.76,2.85 8.54,6.76 11.35,11.72 2.81,4.96 4.21,10.62 4.21,16.96 m -9.89,0 c 0,-4.72 -0.96,-8.85 -2.87,-12.39 -1.91,-3.54 -4.52,-6.34 -7.81,-8.42 -3.3,-2.08 -6.98,-3.11 -11.04,-3.11 -4.06,0 -7.87,1.04 -11.17,3.11 -3.29,2.07 -5.92,4.88 -7.87,8.42 -1.95,3.54 -2.93,7.67 -2.93,12.39 0,4.72 0.98,8.75 2.93,12.33 1.96,3.58 4.58,6.41 7.87,8.48 3.29,2.07 7.02,3.11 11.17,3.11 4.15,0 7.75,-1.04 11.04,-3.11 3.29,-2.07 5.9,-4.9 7.81,-8.48 1.91,-3.58 2.87,-7.69 2.87,-12.33"
           style="fill:#040305"
           id="path74" />
        <path
           d="m 564.47,159.11 c -0.65,-1.06 -0.96,-2.18 -0.92,-3.36 0.04,-1.18 0.71,-2.21 2.02,-3.11 0.89,-0.57 1.89,-0.81 2.99,-0.73 1.1,0.08 2.09,0.61 2.99,1.59 2.28,2.68 4.88,4.82 7.81,6.4 2.93,1.59 6.51,2.38 10.74,2.38 1.87,-0.08 3.8,-0.41 5.8,-0.98 1.99,-0.57 3.66,-1.57 5,-2.99 1.35,-1.42 2.02,-3.31 2.02,-5.68 0,-2.37 -0.69,-4.09 -2.07,-5.43 -1.39,-1.34 -3.2,-2.44 -5.43,-3.29 -2.24,-0.86 -4.62,-1.6 -7.14,-2.26 -2.68,-0.73 -5.33,-1.54 -7.93,-2.44 -2.6,-0.89 -4.94,-2.05 -7.02,-3.48 -2.07,-1.42 -3.74,-3.21 -5,-5.37 -1.26,-2.16 -1.89,-4.82 -1.89,-8 0,-3.66 0.99,-6.83 2.99,-9.52 1.99,-2.68 4.65,-4.76 7.99,-6.22 3.33,-1.47 7.04,-2.2 11.1,-2.2 2.28,0 4.66,0.27 7.14,0.79 2.48,0.53 4.9,1.43 7.26,2.69 2.36,1.26 4.43,2.99 6.23,5.19 0.73,0.82 1.14,1.83 1.22,3.05 0.08,1.22 -0.45,2.32 -1.59,3.29 -0.9,0.65 -1.89,0.96 -2.99,0.92 -1.1,-0.04 -2.01,-0.43 -2.74,-1.16 -1.79,-2.12 -3.97,-3.72 -6.53,-4.82 -2.56,-1.1 -5.39,-1.65 -8.48,-1.65 -1.87,0 -3.74,0.31 -5.62,0.92 -1.87,0.61 -3.44,1.57 -4.7,2.87 -1.26,1.3 -1.9,3.13 -1.9,5.49 0.08,2.19 0.82,3.99 2.2,5.37 1.38,1.39 3.25,2.5 5.62,3.36 2.36,0.85 4.96,1.69 7.81,2.5 2.6,0.65 5.1,1.4 7.5,2.26 2.4,0.85 4.58,1.97 6.53,3.35 1.95,1.39 3.5,3.16 4.64,5.31 1.14,2.16 1.71,4.86 1.71,8.12 0,3.74 -1.06,6.98 -3.17,9.7 -2.12,2.73 -4.9,4.8 -8.36,6.22 -3.46,1.42 -7.18,2.13 -11.16,2.13 -4.48,0 -8.91,-0.83 -13.31,-2.5 -4.39,-1.67 -8.17,-4.58 -11.35,-8.73"
           style="fill:#040305"
           id="path76" />
        <path
           d="m 653.93,104.44 c 4.23,0 8.01,0.45 11.35,1.34 3.33,0.9 5.98,2.12 7.93,3.66 1.95,1.54 2.93,3.29 2.93,5.25 0,1.14 -0.37,2.2 -1.1,3.17 -0.73,0.98 -1.75,1.47 -3.05,1.47 -1.06,0 -1.93,-0.22 -2.62,-0.67 -0.69,-0.44 -1.34,-0.98 -1.95,-1.59 -0.61,-0.61 -1.45,-1.2 -2.5,-1.77 -0.98,-0.49 -2.4,-0.92 -4.27,-1.28 -1.87,-0.36 -3.74,-0.55 -5.61,-0.55 -4.48,0 -8.4,1.06 -11.78,3.17 -3.38,2.12 -6.04,4.97 -7.99,8.54 -1.96,3.58 -2.93,7.65 -2.93,12.2 0,4.55 0.93,8.63 2.8,12.21 1.87,3.58 4.48,6.43 7.81,8.54 3.33,2.12 7.2,3.17 11.59,3.17 2.85,0 5.11,-0.25 6.77,-0.73 1.67,-0.49 3.11,-1.06 4.33,-1.71 1.38,-0.81 2.46,-1.63 3.23,-2.44 0.77,-0.82 1.85,-1.22 3.23,-1.22 1.38,0 2.46,0.45 3.23,1.34 0.77,0.9 1.16,1.99 1.16,3.3 0,1.54 -1.02,3.13 -3.05,4.76 -2.03,1.63 -4.8,2.99 -8.3,4.09 -3.5,1.1 -7.41,1.65 -11.71,1.65 -6.19,0 -11.59,-1.44 -16.23,-4.33 -4.64,-2.89 -8.24,-6.83 -10.8,-11.84 -2.56,-5 -3.84,-10.6 -3.84,-16.78 0,-6.18 1.32,-11.75 3.97,-16.72 2.64,-4.96 6.33,-8.91 11.04,-11.84 4.72,-2.93 10.17,-4.39 16.35,-4.39"
           style="fill:#040305"
           id="path78" />
      </g>
      <path
         d="m 330.95,109.72 c -5.34,-3.45 -11.53,-5.28 -17.89,-5.28 -6.36,0 -12.56,1.83 -17.9,5.29 -1.09,0.71 -1.79,1.86 -1.93,3.16 -0.14,1.33 0.32,2.64 1.26,3.58 l 1.79,1.79 c 0.85,0.85 1.96,1.29 3.08,1.29 0.78,0 1.56,-0.21 2.26,-0.64 3.44,-2.13 7.39,-3.25 11.43,-3.25 4.04,0 7.99,1.12 11.43,3.24 1.71,1.06 3.91,0.79 5.35,-0.64 l 1.79,-1.79 c 0.94,-0.94 1.4,-2.25 1.26,-3.57 -0.14,-1.3 -0.84,-2.45 -1.93,-3.16"
         style="fill:#00828d"
         id="path82" />
      <path
         d="m 307.99,158.92 c -9.98,-2.36 -16.95,-11.17 -16.95,-21.42 0,-4.06 1.13,-8.05 3.27,-11.5 1.01,-1.65 0.76,-3.76 -0.62,-5.14 l -1.79,-1.79 c -0.91,-0.91 -2.16,-1.35 -3.44,-1.22 -1.25,0.13 -2.36,0.81 -3.04,1.86 -3.44,5.31 -5.25,11.47 -5.25,17.79 0,15.38 10.91,28.9 25.95,32.14 0.28,0.06 0.57,0.09 0.86,0.09 0.93,0 1.84,-0.32 2.59,-0.92 1,-0.81 1.58,-2.01 1.58,-3.29 v -2.5 c 0,-1.94 -1.33,-3.67 -3.15,-4.1"
         style="fill:#ff5c80"
         id="path84" />
      <path
         d="m 367.97,104.61 c -18.14,0 -32.89,14.75 -32.89,32.89 l 0.02,0.15 -0.02,0.16 c -0.14,10.32 -7.59,19.27 -17.71,21.28 -1.38,0.27 -2.38,1.5 -2.38,2.9 v 5.02 c 0,0.88 0.39,1.71 1.05,2.28 0.66,0.56 1.52,0.8 2.36,0.66 15.97,-2.61 27.56,-16.26 27.56,-32.44 0,-12.14 9.87,-22.01 22.01,-22.01 12.14,0 22.01,9.87 22.01,22.01 0,12.14 -9.87,22.02 -22.01,22.02 -3,0 -5.44,2.43 -5.44,5.44 0,3.01 2.44,5.44 5.44,5.44 18.14,0 32.89,-14.76 32.89,-32.89 0,-18.13 -14.75,-32.89 -32.89,-32.89"
         style="fill:#00828d"
         id="path86" />
      <g
         id="g94">
        <path
           d="M 112.34,152.84 H 85.21 l -6.09,16.94 h -8.8 l 24.72,-64.75 h 7.47 l 24.77,64.75 h -8.76 z M 87.79,145.86 H 109.8 L 98.77,115.58 Z"
           style="fill:#040305"
           id="path88" />
        <path
           d="m 143.7,169.78 h -8.54 v -64.74 h 8.54 v 64.75 z"
           style="fill:#040305"
           id="path90" />
        <path
           d="m 187.78,149.73 h 11.21 v 2.4 h -11.21 v 17.65 h -2.4 v -17.65 h -31.39 v -1.33 l 30.91,-45.76 h 2.89 v 44.69 z m -30.06,0 h 27.66 v -41.8 l -3.74,6.14 z"
           style="fill:#040305"
           id="path92" />
      </g>
      <rect
         x="239.06"
         y="71.629997"
         width="1.41"
         height="131.56"
         style="fill:#040305"
         id="rect96" />
    </g>
  </g>
</svg>
