<?xml version="1.0" standalone="yes"?>
<svg xmlns="http://www.w3.org/2000/svg" width="1920" height="470">
<path style="fill:#ffffff; stroke:none;" d="M0 0L0 213L1 213C1.23533 127.716 71.2425 46.9044 147 16.6003C167.465 8.41418 190.745 1.06131 213 1L193 0L150 0L0 0z"/>
<path style="fill:#1361ab; stroke:none;" d="M213 0.424377C171.905 5.83606 134.551 17.8211 100 41.3441C75.7247 57.8711 54.8807 79.5717 38.6674 104C-28.5885 205.334 -5.9892 348.607 92 422.105C115.117 439.444 141.193 452.646 169 460.573C200.519 469.557 233.566 471.854 266 467.715C299.213 463.475 331.716 451.859 360 433.947C460.966 370.006 498.697 236.011 445.191 129C429.213 97.0432 405.948 69.8646 378 47.804C354.793 29.4858 327.321 16.422 299 8.29089C272.145 0.580658 240.868 -3.24542 213 0.424377z"/>
<path style="fill:#ffffff; stroke:none;" d="M256 0L256 1C285.593 1.08151 315.947 12.7248 342 25.7531C364.899 37.2039 384.969 52.9399 403 71C418.663 86.6883 431.098 104.706 441.86 124C508.576 243.604 449.299 400.442 324 451.989C298.447 462.502 270.683 469 243 469L243 470L1920 470L1920 279L1765 279C1769.34 313.147 1801.26 339.128 1836 325.536C1842.47 323.003 1848.17 319.16 1852.83 313.996C1855.88 310.611 1858.34 304.567 1863.04 303.318C1877.94 299.361 1898.55 303 1914 303C1903.64 363.178 1827.16 384.509 1777 365.771C1732.92 349.303 1708.95 304.844 1712.09 259C1714.92 217.639 1738.66 178.767 1779 164.695C1835.22 145.085 1916.08 175.263 1919 243L1920 243L1920 0L256 0M52 288C83.269 279.127 99.3263 250.949 115.681 225C141.051 184.748 171.281 140.175 223 135.17C280.281 129.626 318.402 169 346.576 214C364.602 242.792 382.017 278.069 417 288C431.128 219.55 420.337 151.516 368.91 100.09C299.478 30.6567 183.901 26.9868 110 91.2894C86.3945 111.829 68.6032 137.963 57.2029 167C47.395 191.981 42.6181 221.187 45.1698 248C46.4625 261.585 50.192 274.573 52 288z"/>
<path style="fill:#1361ab; stroke:none;" d="M634 72.5178C612.031 77.2048 603.455 104.88 617.519 121.96C625.82 132.042 640.79 134.671 653 131.985C675.263 127.086 685.867 98.5253 669.674 81.1736C661.04 71.921 645.955 69.9672 634 72.5178M1444 72.5178C1422.58 77.0952 1413.94 103.96 1426.93 120.961C1435.15 131.73 1450.3 134.739 1463 131.985C1484.87 127.243 1496.04 99.775 1480.67 82.0401C1472.06 72.1011 1456.39 69.8714 1444 72.5178M693 80L693 368L747 368L747 174L748 174L767.753 214L805.691 288L819.753 316L826.39 326.397L858 327L868.363 325.397L876.247 311L891.258 281L929.247 207L946 172L947 172L947 368L1000 368L1000 80L955 80L937.39 81.0278L929.247 95L911.753 130L847 260L782.247 131L764.247 95L756.363 81.0278L739 80L693 80z"/>
<path style="fill:#f39301; stroke:none;" d="M53 287C53.755 303.522 65.0842 322.526 74 336C115.7 321.893 139.39 285.62 161.576 250C175.844 227.094 191.882 198.146 219 189.004C241.107 181.551 262.819 191.407 277.83 208C302.752 235.548 317.89 270.517 341.754 299C352.277 311.56 365.301 322.402 380 329.752C383.813 331.658 391.305 336.367 395.621 333.932C399.349 331.829 401.425 325.635 403.247 322C408.805 310.913 413.164 299.789 417 288C384.783 275.647 368.608 248.154 350.95 220C330.158 186.85 306.962 152.495 268 139.671C258.607 136.579 248.871 135.001 239 135C227.029 134.999 215.59 135.281 204 138.721C158.53 152.216 133.683 195.32 110.05 233C97.1442 253.578 79.3242 283.112 53 287z"/>
<path style="fill:#1361ab; stroke:none;" d="M1020 232C1034.7 232 1055.74 235.92 1069.78 231.682C1073.76 230.478 1074.55 224.19 1076.48 221C1079.74 215.602 1084.51 211.339 1090 208.313C1109.04 197.825 1137.3 200.201 1149.53 220C1154.73 228.415 1155 237.428 1155 247C1118.51 247 1073.2 240.042 1041 261.101C1000.1 287.845 1009.9 350.055 1054 366.935C1077.92 376.09 1112 376.407 1134 362.135C1144.28 355.464 1149.93 345.494 1159 338L1163 368L1209 368L1209 259C1209 232.727 1208.35 205.213 1188.96 185.001C1142.82 136.899 1021.63 153.035 1020 232M1251 286L1251 287C1240.09 294.708 1230.92 307.129 1221.92 317C1217.65 321.673 1213.96 327.241 1216.6 333.91C1219.54 341.325 1232.08 347.103 1239 350C1231.22 357.165 1223.5 364.235 1218.89 374C1205.7 401.94 1217.7 434.3 1244 448.961C1278.87 468.398 1337.72 470.285 1372 448.771C1401.68 430.143 1417.18 384.408 1392.67 355C1380.6 340.513 1362.02 334.381 1344 331.25C1328.43 328.545 1312.62 327.997 1297 325.576C1287.74 324.14 1279.1 320.566 1270 319C1274.24 314.764 1279.28 307.433 1285 305.317C1289.76 303.555 1297.03 306.57 1302 306.91C1313.96 307.73 1326.36 307.028 1338 304.105C1384.61 292.399 1407.23 242.264 1387 199C1394.65 198.396 1402.33 197.378 1410 197.039C1412.91 196.911 1417.87 197.858 1419.97 195.258C1424.46 189.711 1421 170.094 1421 163C1395.92 163 1369.99 164.915 1345 162.907C1316.92 160.65 1292.88 154.444 1266 168.259C1226.17 188.726 1210.16 257.216 1251 286M1554 196L1553 196L1550.42 172L1548.4 164.028L1536 163L1502 163L1502 368L1556 368L1556 282C1556 264.712 1554.28 246.968 1562.27 231C1576.14 203.286 1617.82 192.481 1638.61 219C1649.66 233.088 1649 253.106 1649 270L1649 368L1702 368L1702 267C1702 240.007 1702.39 212.521 1686.92 189C1660.06 148.151 1573.44 144.737 1554 196M1914 303C1898.39 303 1877.11 299.168 1862.1 303.318C1857.91 304.478 1855.56 309.95 1852.83 312.999C1848.08 318.299 1842.56 322.355 1836 325.124C1800.89 339.944 1771.16 311.692 1765 279L1920 279C1920 240.678 1916.85 206.593 1885 180.321C1845.68 147.884 1778.09 151.087 1742.09 187.09C1723.37 205.807 1713.87 231.984 1712.09 258C1708.47 310.774 1738.61 359.15 1792 370.335C1831.59 378.628 1874.6 367.339 1899.37 334C1905.89 325.224 1912.89 314.118 1914 303M617 163L617 368L671 368L671 163L617 163M1427 163L1427 368L1481 368L1481 163L1427 163z"/>
<path style="fill:#ffffff; stroke:none;" d="M75 335C76.7716 342.539 83.0208 349.084 87.8048 355C101.449 371.873 118.357 386.281 137 397.396C203.793 437.217 290.801 432.05 352 383.789C367.536 371.538 387.792 354.013 395 335C347.128 323.92 322.06 270.094 297.333 233C282.346 210.516 264.509 186.858 235 186.129C204.75 185.382 184.134 212.94 169.808 236C146.72 273.163 120.627 322.52 75 335M1310 200.514C1300.57 201.11 1291.39 203.016 1284.09 209.468C1271.84 220.296 1271.4 244.42 1283.1 255.816C1291.28 263.774 1303.89 266.689 1315 265.91C1360.95 262.693 1355.6 197.632 1310 200.514M1766 245L1866 245C1864.31 205.866 1818.2 191.723 1788 210.468C1775.57 218.18 1768.88 231.082 1766 245M0 256L0 470L226 470L226 469C136.552 469 57.0176 408.886 19.7809 330C12.654 314.902 7.66923 298.345 4.39969 282C2.77719 273.889 3.15444 263.501 0 256M1154 280C1140.33 280 1126.67 279.935 1113 280.001C1106.48 280.032 1099.34 280.592 1093 282.131C1075.96 286.27 1062.93 306.809 1077.33 321.699C1095.54 340.528 1130.47 329.399 1142.91 310C1148.85 300.744 1151.93 290.689 1154 280z"/>
<path style="fill:#b28065; stroke:none;" d="M52 288L53 289L52 288z"/>
<path style="fill:#6e7091; stroke:none;" d="M52.3333 289.667L52.6667 290.333L52.3333 289.667z"/>
<path style="fill:#b28065; stroke:none;" d="M416 289L417 290L416 289z"/>
<path style="fill:#6e7091; stroke:none;" d="M416 290L417 291L416 290z"/>
<path style="fill:#b28065; stroke:none;" d="M53 292L54 293L53 292M415 292L416 293L415 292z"/>
<path style="fill:#6e7091; stroke:none;" d="M53 293L54 294L53 293M415.333 293.667L415.667 294.333L415.333 293.667z"/>
<path style="fill:#b28065; stroke:none;" d="M54 295L55 296L54 295M414 295L415 296L414 295z"/>
<path style="fill:#6e7091; stroke:none;" d="M54 296L55 297L54 296M414 296L415 297L414 296z"/>
<path style="fill:#b28065; stroke:none;" d="M55 298L56 299L55 298M413 298L414 299L413 298z"/>
<path style="fill:#6e7091; stroke:none;" d="M55 299L56 300L55 299M413 299L414 300L413 299z"/>
<path style="fill:#b28065; stroke:none;" d="M56 300L57 301L56 300z"/>
<path style="fill:#6e7091; stroke:none;" d="M56 301L57 302L56 301z"/>
<path style="fill:#b28065; stroke:none;" d="M412 301L413 302L412 301z"/>
<path style="fill:#6e7091; stroke:none;" d="M412 302L413 303L412 302z"/>
<path style="fill:#b28065; stroke:none;" d="M57 303L58 304L57 303z"/>
<path style="fill:#6e7091; stroke:none;" d="M57 304L58 305L57 304M411 304L412 305L411 304M58 306L59 307L58 306z"/>
<path style="fill:#b28065; stroke:none;" d="M410 306L411 307L410 306z"/>
<path style="fill:#6e7091; stroke:none;" d="M410 307L411 308L410 307z"/>
<path style="fill:#b28065; stroke:none;" d="M59 308L60 309L59 308z"/>
<path style="fill:#6e7091; stroke:none;" d="M59 309L60 310L59 309M409 309L410 310L409 309z"/>
<path style="fill:#b28065; stroke:none;" d="M60 310L61 311L60 310z"/>
<path style="fill:#6e7091; stroke:none;" d="M60 311L61 312L60 311z"/>
<path style="fill:#b28065; stroke:none;" d="M408 311L409 312L408 311z"/>
<path style="fill:#6e7091; stroke:none;" d="M408 312L409 313L408 312M61 313L62 314L61 313z"/>
<path style="fill:#b28065; stroke:none;" d="M407 313L408 314L407 313z"/>
<path style="fill:#6e7091; stroke:none;" d="M407 314L408 315L407 314z"/>
<path style="fill:#b28065; stroke:none;" d="M62 315L63 316L62 315M406 315L407 316L406 315z"/>
<path style="fill:#6e7091; stroke:none;" d="M406 316L407 317L406 316z"/>
<path style="fill:#b28065; stroke:none;" d="M63 317L64 318L63 317M405 317L406 318L405 317z"/>
<path style="fill:#6e7091; stroke:none;" d="M405 318L406 319L405 318z"/>
<path style="fill:#b28065; stroke:none;" d="M64 319L65 320L64 319M404 319L405 320L404 319z"/>
<path style="fill:#6e7091; stroke:none;" d="M404 320L405 321L404 320z"/>
<path style="fill:#b28065; stroke:none;" d="M65 321L66 322L65 321M403 321L404 322L403 321z"/>
<path style="fill:#6e7091; stroke:none;" d="M403 322L404 323L403 322z"/>
<path style="fill:#b28065; stroke:none;" d="M66 323L67 324L66 323M402 323L403 324L402 323z"/>
<path style="fill:#6e7091; stroke:none;" d="M402 324L403 325L402 324M67 325L68 326L67 325z"/>
<path style="fill:#b28065; stroke:none;" d="M401 325L402 326L401 325z"/>
<path style="fill:#6e7091; stroke:none;" d="M401 326L402 327L401 326M68 327L69 328L68 327z"/>
<path style="fill:#b28065; stroke:none;" d="M400 327L401 328L400 327M69 328L70 329L69 328z"/>
<path style="fill:#6e7091; stroke:none;" d="M69 329L70 330L69 329M399 329L400 330L399 329z"/>
<path style="fill:#b28065; stroke:none;" d="M70 330L71 331L70 330M398 330L399 331L398 330z"/>
<path style="fill:#6e7091; stroke:none;" d="M398 331L399 332L398 331M71 332L72 333L71 332z"/>
<path style="fill:#b28065; stroke:none;" d="M397 332L398 333L397 332M72 333L73 334L72 333z"/>
<path style="fill:#6e7091; stroke:none;" d="M72 334L73 335L72 334M396 334L397 335L396 334M73 335L74 336L73 335z"/>
<path style="fill:#b28065; stroke:none;" d="M395 335L396 336L395 335z"/>
<path style="fill:#ffffff; stroke:none;" d="M1283 363.703C1264.56 369.881 1255.46 397.141 1271.04 410.671C1286.07 423.718 1314.87 425.415 1333 418.91C1351.36 412.322 1364.49 389.319 1345.98 374.39C1334.25 364.924 1315.16 366.252 1301 364.831C1295.32 364.26 1288.61 361.824 1283 363.703z"/>
</svg>
